<?xml version="1.0" encoding="UTF-8"?>
<svg id="Capa_1" xmlns="http://www.w3.org/2000/svg" version="1.1" viewBox="0 0 1900.8 345.74">
  <!-- Generator: Adobe Illustrator 30.0.0, SVG Export Plug-In . SVG Version: 2.1.1 Build 123)  -->
  <defs>
    <style>
      .st0 {
        fill: none;
      }
    </style>
  </defs>
  <path d="M58.98,132.35l35.07-38.67h173.26v38.67H67.75l32.49,33.52v70.65h167.08v43.83H99.2l-39.71-39.71s-1.29-109.06-.52-108.29Z"/>
  <path d="M560.46,149.97"/>
  <polygon points="532.66 93.67 580.61 93.67 637.08 221.44 696.64 93.67 750.01 93.67 667.25 280.34 615.42 280.34 532.66 93.67"/>
  <path d="M773.99,93.67v186.67h177.9v-43.43h-132.27v-31.71h132.27v-41.77h-133.82l-20.88-32.49h154.7v-37.36s-180.23.09-177.9.09Z"/>
  <path d="M999.44,280.34h44.11v-125.6l100.05,125.6h45.33V93.58h-44.07v121.05l-98.21-121.05h-47.21v186.76Z"/>
  <path d="M1680.01,93v37.28h57.99v149.12h47.63v-149.82h45.94l34.59-34.59s-186.36-1.98-186.16-1.98Z"/>
  <path d="M1457.19,279.58h44.11v-125.6l100.05,125.6h45.33V92.82h-44.07v121.05l-98.21-121.05h-47.21v186.76Z"/>
  <g>
    <rect class="st0" x="340.03" y="136.3" width="124.83" height="106.26"/>
    <path d="M325.86,278.49s36.95-.02,76.58-.04c-28.39-.01-58.13-.03-76.66-.04l.08.08Z"/>
    <polygon points="287.89 130.88 287.89 240.52 307.29 259.92 307.29 111.48 287.89 130.88"/>
    <rect x="464.86" y="136.3" width=".05" height="106.26"/>
    <path d="M479.02,278.49l.08-.08c-18.53,0-48.27.02-76.66.04,39.62.02,76.58.04,76.58.04Z"/>
    <polygon points="516.99 130.88 497.59 111.48 497.59 259.92 516.99 240.52 516.99 130.88"/>
    <rect x="339.98" y="136.3" width=".05" height="106.26"/>
    <path d="M481.63,95.52h-158.38l-15.96,15.96v148.43l18.5,18.5c18.53,0,48.27.02,76.66.04,28.39-.01,58.13-.03,76.66-.04l18.5-18.5V111.48l-15.96-15.96ZM464.91,242.56h-124.93v-106.26h124.93v106.26Z"/>
  </g>
  <path d="M1213.39,135.79"/>
  <g>
    <polygon class="st0" points="1277.07 101.31 1277.04 101.31 1279.31 106.45 1277.07 101.31"/>
    <polygon points="1408.02 241.07 1387.25 241.07 1324.29 93.58 1273.64 93.58 1277.04 101.31 1277.07 101.31 1279.31 106.45 1281.15 110.63 1281.13 110.64 1295.96 144.75 1224.82 280.34 1267.63 280.34 1316.11 186.96 1358.92 280.34 1423.76 280.34 1408.02 241.07"/>
    <polygon points="1279.31 106.45 1281.13 110.64 1281.15 110.63 1279.31 106.45"/>
  </g>
</svg>