<?xml version="1.0" encoding="UTF-8"?>
<svg id="Capa_1" xmlns="http://www.w3.org/2000/svg" version="1.1" viewBox="0 0 1900.8 345.74">
  <!-- Generator: Adobe Illustrator 30.0.0, SVG Export Plug-In . SVG Version: 2.1.1 Build 123)  -->
  <defs>
    <style>
      .st0 {
        fill: #fff;
      }
    </style>
  </defs>
  <path class="st0" d="M46.93,118.64l35.07-38.67h173.26v38.67H55.7l32.49,33.52v70.65h167.08v43.83H87.15l-39.71-39.71s-1.29-109.06-.52-108.29Z"/>
  <path class="st0" d="M548.41,136.26"/>
  <polygon class="st0" points="520.61 79.96 568.57 79.96 625.03 207.74 684.59 79.96 737.96 79.96 655.2 266.63 603.37 266.63 520.61 79.96"/>
  <path class="st0" d="M761.94,79.96v186.67h177.9v-43.43h-132.27v-31.71h132.27v-41.77h-133.82l-20.88-32.49h154.7v-37.36s-180.23.09-177.9.09Z"/>
  <path class="st0" d="M987.39,266.63h44.11v-125.6l100.05,125.6h45.33V79.87h-44.07v121.05l-98.21-121.05h-47.21v186.76Z"/>
  <path class="st0" d="M1667.96,79.29v37.28h57.99v149.12h47.63V115.87h45.94l34.59-34.59s-186.36-1.98-186.16-1.98Z"/>
  <path class="st0" d="M1445.14,265.87h44.11v-125.6l100.05,125.6h45.33V79.11h-44.07v121.05l-98.21-121.05h-47.21v186.76Z"/>
  <g>
    <path class="st0" d="M313.81,264.78s36.95-.02,76.58-.04c-28.39-.01-58.13-.03-76.66-.04l.08.08Z"/>
    <polygon class="st0" points="275.84 117.17 275.84 226.81 295.24 246.21 295.24 97.78 275.84 117.17"/>
    <rect class="st0" x="452.81" y="122.59" width=".05" height="106.26"/>
    <path class="st0" d="M466.97,264.78l.08-.08c-18.53,0-48.27.02-76.66.04,39.62.02,76.58.04,76.58.04Z"/>
    <polygon class="st0" points="504.94 117.17 485.55 97.78 485.55 246.21 504.94 226.81 504.94 117.17"/>
    <rect class="st0" x="327.93" y="122.59" width=".05" height="106.26"/>
    <path class="st0" d="M469.58,81.81h-158.38l-15.96,15.96v148.43l18.5,18.5c18.53,0,48.27.02,76.66.04,28.39-.01,58.13-.03,76.66-.04l18.5-18.5V97.78l-15.96-15.96ZM452.86,228.86h-124.93v-106.26h124.93v106.26Z"/>
  </g>
  <path class="st0" d="M1201.34,122.09"/>
  <g>
    <polygon class="st0" points="1265.02 87.6 1264.99 87.6 1267.26 92.74 1265.02 87.6"/>
    <polygon class="st0" points="1395.97 227.36 1375.2 227.36 1312.24 79.87 1261.59 79.87 1264.99 87.6 1265.02 87.6 1267.26 92.74 1269.1 96.92 1269.08 96.93 1283.91 131.04 1212.77 266.63 1255.58 266.63 1304.06 173.25 1346.87 266.63 1411.71 266.63 1395.97 227.36"/>
    <polygon class="st0" points="1267.26 92.74 1269.08 96.93 1269.1 96.92 1267.26 92.74"/>
  </g>
</svg>